<?xml version="1.0" encoding="utf-8"?>
<!-- Generator: Adobe Illustrator 27.5.0, SVG Export Plug-In . SVG Version: 6.00 Build 0)  -->
<svg version="1.1" id="Layer_1" xmlns="http://www.w3.org/2000/svg" xmlns:xlink="http://www.w3.org/1999/xlink" x="0px" y="0px"
	 viewBox="0 0 600 600" style="enable-background:new 0 0 600 600;" xml:space="preserve">
<style type="text/css">
	.st0{fill:#455266;}
	.st1{display:none;}
	.st2{display:none;opacity:0.46;}
	.st3{fill:#FFEEBB;}
</style>
<g id="OBJECTS">
</g>
<g id="BACKGROUND">
	<rect y="0" class="st0" width="600" height="600"/>
</g>
<g id="Layer_1_00000081632451737013471560000010141803573021034146_" class="st1">
</g>
<g id="Layer_7" class="st1">
</g>
<g id="Isolation_Mode_copy" class="st2">
</g>
<g id="Isolation_Mode" class="st1">
</g>
<g id="круги">
</g>
<g id="Layer_8">
</g>
<g id="Layer_5">
</g>
<g id="Layer_11">
</g>
<g id="Layer_10">
</g>
<g id="Layer_12">
	<path class="st3" d="M248.3,323.3c2.2,0,4.2,0.4,6,1.3s3.2,2.3,4.2,4.1c1,1.9,1.6,4.3,1.6,7.2v16.3h-10v-14.7c0-2-0.4-3.5-1.2-4.4
		s-2-1.4-3.4-1.4c-1.1,0-2,0.2-2.9,0.7s-1.6,1.2-2.1,2.2s-0.7,2.3-0.7,3.8v13.8h-10v-28.5h9.5v8.1l-1.8-2.4c1.1-2.1,2.6-3.6,4.5-4.7
		C243.7,323.8,245.9,323.3,248.3,323.3z M278.4,352.8c-3.1,0-5.9-0.6-8.3-1.9s-4.3-3-5.7-5.2c-1.4-2.2-2.1-4.8-2.1-7.7
		c0-2.9,0.7-5.4,2.1-7.6s3.3-3.9,5.7-5.2c2.4-1.2,5.2-1.9,8.3-1.9c3.1,0,5.9,0.6,8.3,1.9c2.4,1.2,4.3,3,5.7,5.2
		c1.4,2.2,2.1,4.8,2.1,7.6c0,2.9-0.7,5.4-2.1,7.7c-1.4,2.2-3.3,4-5.7,5.2C284.3,352.1,281.5,352.8,278.4,352.8z M278.4,344.8
		c1.2,0,2.2-0.3,3.1-0.8s1.6-1.3,2.1-2.3s0.8-2.3,0.8-3.7c0-1.4-0.3-2.7-0.8-3.7s-1.2-1.8-2.1-2.3s-1.9-0.8-3.1-0.8
		c-1.1,0-2.1,0.3-3,0.8s-1.6,1.3-2.2,2.3c-0.5,1-0.8,2.2-0.8,3.7c0,1.4,0.3,2.7,0.8,3.7s1.3,1.8,2.2,2.3
		C276.2,344.6,277.2,344.8,278.4,344.8z M301.5,320.6c-1.8,0-3.3-0.5-4.4-1.5s-1.7-2.3-1.7-3.8s0.6-2.8,1.7-3.8s2.6-1.5,4.4-1.5
		s3.3,0.5,4.4,1.4c1.1,1,1.7,2.2,1.7,3.7c0,1.6-0.6,2.9-1.7,3.9C304.8,320.1,303.3,320.6,301.5,320.6z M296.5,352.3v-28.5h10v28.5
		H296.5z M320.7,352.8c-2.4,0-4.8-0.3-7.1-0.8c-2.3-0.6-4.1-1.3-5.5-2.1l3-6.8c1.3,0.8,2.9,1.4,4.7,1.9c1.8,0.5,3.5,0.7,5.3,0.7
		c1.7,0,2.8-0.2,3.5-0.5c0.6-0.4,1-0.8,1-1.4s-0.3-1-0.9-1.2c-0.6-0.3-1.4-0.5-2.4-0.6s-2.1-0.3-3.3-0.5c-1.2-0.2-2.4-0.4-3.6-0.7
		c-1.2-0.3-2.3-0.8-3.3-1.4s-1.8-1.4-2.4-2.5s-0.9-2.4-0.9-4c0-1.8,0.5-3.4,1.6-4.9c1.1-1.4,2.6-2.5,4.7-3.4
		c2.1-0.8,4.6-1.2,7.6-1.2c2,0,4,0.2,6.1,0.6s3.8,1,5.2,1.8l-3,6.8c-1.4-0.8-2.8-1.4-4.2-1.7c-1.4-0.3-2.7-0.4-4-0.4
		c-1.7,0-2.9,0.2-3.6,0.6s-1,0.9-1,1.4c0,0.6,0.3,1,0.9,1.3s1.4,0.5,2.4,0.7s2.1,0.3,3.3,0.5c1.2,0.2,2.4,0.4,3.6,0.7
		c1.2,0.3,2.3,0.8,3.3,1.4s1.8,1.4,2.4,2.5c0.6,1,0.9,2.4,0.9,4c0,1.8-0.5,3.3-1.6,4.7c-1.1,1.4-2.6,2.5-4.7,3.4
		C326.3,352.4,323.7,352.8,320.7,352.8z M351.4,352.8c-3.4,0-6.3-0.6-8.8-1.9s-4.5-3-5.8-5.3c-1.4-2.2-2.1-4.8-2.1-7.6
		c0-2.8,0.7-5.4,2-7.6s3.2-4,5.6-5.2s5.1-1.9,8-1.9c2.8,0,5.4,0.6,7.7,1.7c2.3,1.1,4.2,2.8,5.5,5c1.4,2.2,2.1,4.9,2.1,8
		c0,0.4,0,0.8-0.1,1.2s-0.1,0.9-0.1,1.3h-22.6v-5.3h17.3l-3.8,1.5c0-1.3-0.2-2.4-0.7-3.4c-0.5-0.9-1.2-1.7-2.1-2.2s-1.9-0.8-3.1-0.8
		s-2.2,0.3-3.1,0.8s-1.6,1.3-2.1,2.2c-0.5,1-0.7,2.1-0.7,3.4v1.5c0,1.4,0.3,2.6,0.9,3.6s1.4,1.8,2.5,2.3s2.4,0.8,3.9,0.8
		c1.4,0,2.6-0.2,3.6-0.6s2-1,3-1.9l5.3,5.5c-1.4,1.5-3.1,2.7-5,3.4C356.5,352.4,354.1,352.8,351.4,352.8z M237.2,295.6
		c-2.7,0-5.2-0.5-7.4-1.6c-2.2-1-3.9-2.5-5.1-4.3l5.5-6.3c1,1.1,2.1,1.9,3.4,2.6c1.2,0.6,2.5,0.9,3.7,0.9c0.9,0,1.6-0.2,2.2-0.5
		c0.6-0.3,1.1-0.8,1.4-1.4c0.3-0.6,0.5-1.3,0.5-2.1c0-0.8-0.1-1.4-0.4-2c-0.3-0.6-0.7-1-1.3-1.3c-0.5-0.3-1.2-0.5-1.9-0.5
		s-1.4,0.2-2,0.5s-1.1,0.8-1.4,1.3h-8.6l4.4-23.2h18.7v9.1h-11.5l-0.6,4.1c0.8-0.2,1.6-0.3,2.4-0.3c2.4,0,4.6,0.5,6.4,1.6
		c1.9,1,3.3,2.5,4.4,4.3c1.1,1.8,1.6,3.9,1.6,6.3c0,2.5-0.6,4.8-1.8,6.7c-1.2,1.9-2.9,3.4-5.1,4.5S240.1,295.6,237.2,295.6z
		 M255.8,295.1v-36.8h8.6l15.3,25h-4.5l14.8-25h8.6l0.1,36.8h-9.6l-0.1-22.3h1.6l-11.1,18.6h-4.6l-11.4-18.6h2v22.3H255.8z
		 M302.1,295.1v-36.8h17.4c4.1,0,7.6,0.8,10.7,2.3s5.5,3.6,7.2,6.4c1.7,2.7,2.6,6,2.6,9.8s-0.9,7-2.6,9.8s-4.1,4.9-7.2,6.4
		s-6.7,2.3-10.7,2.3h-17.4V295.1z M312.5,286.8h6.6c2.1,0,3.9-0.4,5.5-1.2c1.6-0.8,2.8-1.9,3.7-3.5c0.9-1.5,1.3-3.3,1.3-5.4
		s-0.4-4-1.3-5.5s-2.1-2.7-3.7-3.4c-1.6-0.8-3.4-1.2-5.5-1.2h-6.6V286.8z M348.9,295.1v-28.6h-11.3v-8.3h33v8.3h-11.3v28.6H348.9z
		 M297.6,242.5c-2.2-5-5.9-7.7-9-9.1c3.1-1.4,6.9-4.1,9-9.1c2.2,5,5.9,7.7,9,9.1C303.5,234.8,299.8,237.5,297.6,242.5z M421.7,132.5
		c-36.3-26.4-79.2-40.4-124.1-40.4s-87.8,14-124.1,40.4l0.6,0.8C210.3,107,253,93.1,297.6,93.1c44.7,0,87.4,13.9,123.5,40.2
		L421.7,132.5z M508.8,303.3c0-44.9-14-87.8-40.4-124.1l-0.8,0.6c26.3,36.1,40.2,78.8,40.2,123.5s-13.9,87.4-40.2,123.5l0.8,0.6
		C494.8,391,508.8,348.1,508.8,303.3z M127.7,426.7c-26.3-36.1-40.2-78.8-40.2-123.5s13.9-87.4,40.2-123.5l-0.8-0.6
		c-26.4,36.3-40.4,79.2-40.4,124.1s14,87.8,40.4,124.1L127.7,426.7z M107.3,164.9l-0.8-0.6C76.9,204.9,61.3,252.8,61.3,303h1
		C62.3,253.1,77.9,205.3,107.3,164.9z M297.6,67.9c50,0,97.9,15.6,138.3,45l0.6-0.8c-40.6-29.6-88.6-45.2-138.9-45.2
		c-50.2,0-98.3,15.6-138.9,45.2l0.6,0.8C199.8,83.4,247.6,67.9,297.6,67.9z M400.2,162C378,145.8,352,135,325,130.7l-0.2,1
		c26.9,4.2,52.8,15,74.9,31.1L400.2,162z M270.5,131.7l-0.2-1c-27,4.3-53.1,15.1-75.3,31.3l0.6,0.8
		C217.7,146.7,243.6,136,270.5,131.7z M157.2,201.2l-0.8-0.6c-16.2,22.2-27,48.3-31.3,75.3l1,0.2
		C130.4,249.2,141.1,223.3,157.2,201.2z M470.1,275.9c-4.3-27-15.1-53.1-31.3-75.3l-0.8,0.6c16.1,22.1,26.9,48,31.1,74.9
		L470.1,275.9z M438.4,424.6c29.1-33.7,45.1-76.8,45.1-121.3s-16-87.6-45.1-121.3c-28.8-33.4-68.5-55.5-111.7-62.3
		c-19.2-3-39-3-58.2,0c-43.2,6.8-82.9,29-111.7,62.3c-29.1,33.7-45.1,76.8-45.1,121.3s16,87.6,45.1,121.3
		c28.8,33.4,68.5,55.5,111.7,62.3l0.2-1c-88.9-14-156-92.6-156-182.7s67.1-168.6,156-182.7c19.1-3,38.8-3,57.9,0
		c88.9,14,156,92.6,156,182.7s-67.1,168.6-156,182.7l0.2,1C370,480.1,409.6,458,438.4,424.6z M499,303.1c5-2.2,7.7-5.9,9.1-9
		c1.4,3.1,4.1,6.9,9.1,9c-5,2.2-7.7,5.9-9.1,9C506.7,309,504,305.2,499,303.1z M297.6,76.5c-2.2-5-5.9-7.7-9-9.1
		c3.1-1.4,6.9-4.1,9-9.1c2.2,5,5.9,7.7,9,9.1C303.5,68.8,299.8,71.5,297.6,76.5z M297.6,126.9c-2.2-5-5.9-7.7-9-9.1
		c3.1-1.4,6.9-4.1,9-9.1c2.2,5,5.9,7.7,9,9.1C303.5,119.2,299.8,121.9,297.6,126.9z M121.5,303.1c-5,2.2-7.7,5.9-9.1,9
		c-1.4-3.1-4.1-6.9-9.1-9c5-2.2,7.7-5.9,9.1-9C113.8,297.2,116.5,300.9,121.5,303.1z M297.6,101.7c-2.2-5-5.9-7.7-9-9.1
		c3.1-1.4,6.9-4.1,9-9.1c2.2,5,5.9,7.7,9,9.1C303.5,94,299.8,96.7,297.6,101.7z M306.1,200.7l-8.4-20l-8.4,20
		c2.8-0.2,5.6-0.3,8.4-0.3S303.3,200.5,306.1,200.7z M195.1,294.8l-20,8.4l20,8.4c-0.2-2.8-0.3-5.6-0.3-8.4S194.9,297.6,195.1,294.8
		z M400.2,311.7l20-8.4l-20-8.4c0.2,2.8,0.3,5.6,0.3,8.4S400.4,308.9,400.2,311.7z M289.2,405.8l8.4,20l8.4-20
		c-2.8,0.2-5.6,0.3-8.4,0.3C294.8,406.1,292,406,289.2,405.8z M463.8,303.3l-18.2-7.7c-1.8-34.4-15.3-65.7-36.6-89.9l32.6-46.3
		L395.3,192c-24.3-21.3-55.6-34.9-89.9-36.6l-7.7-18.2l-7.7,18.2c-34.4,1.8-65.7,15.3-89.9,36.6l-46.3-32.6l32.6,46.3
		c-21.3,24.3-34.9,55.6-36.6,89.9l-18.2,7.7l18.2,7.7c1.8,34.4,15.3,65.7,36.6,89.9l-32.6,46.3l46.3-32.6
		c24.3,21.3,55.6,34.9,89.9,36.6l7.7,18.2l7.7-18.2c34.4-1.8,65.7-15.3,89.9-36.6l46.3,32.6L409,400.9
		c21.3-24.3,34.9-55.6,36.6-89.9L463.8,303.3z M448,303.3l-31.8,13.4c0-0.4,0.1-0.8,0.1-1.1l29.1-12.3l-29-12.3
		c0-0.4-0.1-0.8-0.1-1.1L448,303.3z M400.1,312.8c-4.6,49.1-43.8,88.3-92.9,92.9l-9.6,22.6l-9.6-22.6c-49.1-4.6-88.3-43.8-92.9-92.9
		l-22.6-9.6l22.6-9.6c4.6-49.1,43.8-88.3,92.9-92.9l9.6-22.6l9.6,22.6c49.1,4.6,88.3,43.8,92.9,92.9l22.6,9.6L400.1,312.8z
		 M403.9,328.6c-3.4,14.4-9.7,27.7-18.2,39.3l-0.6-0.8c8.2-11.2,14.3-24.1,17.7-37.9L403.9,328.6z M362.2,391.3
		c-11.6,8.5-24.9,14.8-39.3,18.2l0.5-1.1c13.9-3.4,26.7-9.5,37.9-17.7L362.2,391.3z M272.3,409.5c-14.4-3.4-27.7-9.7-39.3-18.2
		l0.8-0.6c11.2,8.2,24.1,14.3,37.9,17.7L272.3,409.5z M210.2,367l-0.6,0.8c-8.5-11.6-14.8-24.9-18.2-39.3l1.1,0.5
		C195.9,342.9,202,355.8,210.2,367z M191.3,277.9c3.4-14.4,9.7-27.7,18.2-39.3l0.6,0.8c-8.2,11.2-14.3,24.1-17.7,37.9L191.3,277.9z
		 M277.1,185.7c-19.6,3.4-37.6,11.6-52.7,23.4l-9.5-6.7c19-15.6,42.2-25.9,67.3-29L277.1,185.7z M272.3,197l-0.5,1.1
		c-13.9,3.4-26.7,9.5-37.9,17.7l-0.8-0.6C244.6,206.7,257.9,200.4,272.3,197z M318.2,185.7l-5.2-12.2c25.1,3,48.4,13.4,67.3,29
		l-9.5,6.7C355.8,197.3,337.8,189.1,318.2,185.7z M362.2,215.2l-0.8,0.6c-11.2-8.2-24.1-14.3-37.9-17.7L323,197
		C337.4,200.4,350.7,206.7,362.2,215.2z M385.1,239.5l0.6-0.8c8.5,11.6,14.8,24.9,18.2,39.3l-1.1-0.5
		C399.4,263.6,393.3,250.7,385.1,239.5z M438.1,292.4l-22.9-9.7c-3.4-19.6-11.6-37.6-23.4-52.7l6.7-9.5
		c14.5,17.5,24.6,38.8,28.3,62.3l9.1-1.4c-4.1-26-15.4-49.6-31.8-68.8l0.6-0.8C423.6,233.8,435.8,261.7,438.1,292.4z M414.1,186.8
		l-26.7,37.9c-0.2-0.3-0.5-0.5-0.7-0.8l23.2-33l-33,23.2c-0.3-0.2-0.5-0.5-0.8-0.7L414.1,186.8z M389.2,196.2l-0.8,0.6
		c-21.8-18.6-49.2-30.6-79.4-33l-0.4-1C339.2,165.1,367.1,177.3,389.2,196.2z M297.6,152.9l13.4,31.8c-0.4,0-0.8-0.1-1.1-0.1
		l-12.3-29.1l-12.3,29.1c-0.4,0-0.8,0.1-1.1,0.1L297.6,152.9z M286.8,162.8l-0.4,1c-30.2,2.4-57.6,14.4-79.4,33l-0.8-0.6
		C228.2,177.3,256.1,165.1,286.8,162.8z M181.2,186.8l37.9,26.7c-0.3,0.2-0.5,0.5-0.8,0.7l-33-23.2l23.2,33
		c-0.2,0.3-0.5,0.5-0.7,0.8L181.2,186.8z M190.6,211.7l0.6,0.8c-16.4,19.2-27.6,42.8-31.8,68.8l9.1,1.4
		c3.7-23.5,13.8-44.8,28.3-62.3l6.7,9.5c-11.8,15.1-20,33.1-23.4,52.7l-22.9,9.7C159.5,261.7,171.7,233.8,190.6,211.7z M147.2,303.3
		l31.8-13.4c0,0.4-0.1,0.8-0.1,1.1l-29.1,12.3l29.1,12.3c0,0.4,0.1,0.8,0.1,1.1L147.2,303.3z M157.1,314.1l22.9,9.7
		c3.4,19.6,11.6,37.6,23.4,52.7l-12.9,18.3C171.7,372.7,159.5,344.8,157.1,314.1z M181.2,419.7l26.7-37.9c0.2,0.3,0.5,0.5,0.7,0.8
		l-23.2,33l33-23.2c0.3,0.2,0.5,0.5,0.8,0.7L181.2,419.7z M206.1,410.3l18.3-12.9c15.1,11.8,33.1,20,52.7,23.4l9.7,22.9
		C256.1,441.4,228.2,429.2,206.1,410.3z M297.6,453.6l-13.4-31.8c0.4,0,0.8,0.1,1.1,0.1l12.3,29.1l12.3-29.1c0.4,0,0.8-0.1,1.1-0.1
		L297.6,453.6z M308.5,443.7l9.7-22.9c19.6-3.4,37.6-11.6,52.7-23.4l18.3,12.9C367.1,429.2,339.2,441.4,308.5,443.7z M414.1,419.7
		L376.2,393c0.3-0.2,0.5-0.5,0.8-0.7l33,23.2l-23.2-33c0.2-0.3,0.5-0.5,0.7-0.8L414.1,419.7z M404.7,394.8l-12.9-18.3
		c11.8-15.1,20-33.1,23.4-52.7l22.9-9.7C435.8,344.8,423.6,372.7,404.7,394.8z M71,303.1c-5,2.2-7.7,5.9-9.1,9
		c-1.4-3.1-4.1-6.9-9.1-9c5-2.2,7.7-5.9,9.1-9C63.3,297.2,66,300.9,71,303.1z"/>
	<g>
		<path class="st3" d="M499,303.1c5-2.2,7.7-5.9,9.1-9c1.4,3.1,4.1,6.9,9.1,9c-5,2.2-7.7,5.9-9.1,9C506.7,309,504,305.2,499,303.1z"
			/>
		<path class="st3" d="M297.6,76.5c-2.2-5-5.9-7.7-9-9.1c3.1-1.4,6.9-4.1,9-9.1c2.2,5,5.9,7.7,9,9.1
			C303.5,68.8,299.8,71.5,297.6,76.5z"/>
		<path class="st3" d="M297.6,126.9c-2.2-5-5.9-7.7-9-9.1c3.1-1.4,6.9-4.1,9-9.1c2.2,5,5.9,7.7,9,9.1
			C303.5,119.2,299.8,121.9,297.6,126.9z"/>
		<path class="st3" d="M121.5,303.1c-5,2.2-7.7,5.9-9.1,9c-1.4-3.1-4.1-6.9-9.1-9c5-2.2,7.7-5.9,9.1-9
			C113.8,297.2,116.5,300.9,121.5,303.1z"/>
		<path class="st3" d="M297.6,101.7c-2.2-5-5.9-7.7-9-9.1c3.1-1.4,6.9-4.1,9-9.1c2.2,5,5.9,7.7,9,9.1
			C303.5,94,299.8,96.7,297.6,101.7z"/>
		<path class="st3" d="M71,303.1c-5,2.2-7.7,5.9-9.1,9c-1.4-3.1-4.1-6.9-9.1-9c5-2.2,7.7-5.9,9.1-9C63.3,297.2,66,300.9,71,303.1z"
			/>
	</g>
</g>
<g id="Layer_13">
</g>
</svg>
